<?xml version="1.0" encoding="utf-8"?>
<!-- Generator: Adobe Illustrator 23.0.3, SVG Export Plug-In . SVG Version: 6.00 Build 0)  -->
<svg version="1.1" id="Layer_1" xmlns="http://www.w3.org/2000/svg" xmlns:xlink="http://www.w3.org/1999/xlink" x="0px" y="0px"
	 viewBox="0 0 1366 768" style="enable-background:new 0 0 1366 768;" xml:space="preserve">
<style type="text/css">
	.st0{fill:#E6F4F4;}
</style>
<g>
	<polygon class="st0" points="180.38,311.94 87.41,311.94 40.93,231.42 87.41,150.91 180.38,150.91 226.86,231.43 	"/>
</g>
<g>
	<polygon class="st0" points="317.24,231.11 224.27,231.11 177.79,150.6 224.27,70.08 317.24,70.08 363.72,150.6 	"/>
</g>
<g>
	<polygon class="st0" points="318.16,391.85 225.19,391.85 178.71,311.34 225.19,230.83 318.16,230.83 364.64,311.34 	"/>
</g>
<g>
	<polygon class="st0" points="455.02,311.94 362.05,311.94 315.57,231.42 362.05,150.91 455.02,150.91 501.5,231.43 	"/>
</g>
<g>
	<polygon class="st0" points="455.94,472.68 362.97,472.68 316.49,392.17 362.97,311.65 455.94,311.66 502.42,392.17 	"/>
</g>
<g>
	<polygon class="st0" points="592.79,391.85 499.83,391.85 453.35,311.34 499.83,230.83 592.8,230.83 639.28,311.34 	"/>
</g>
<g>
	<polygon class="st0" points="593.71,552.59 500.75,552.59 454.26,472.08 500.75,391.57 593.71,391.57 640.2,472.08 	"/>
</g>
<g>
	<polygon class="st0" points="730.57,472.68 637.61,472.68 591.12,392.17 637.61,311.65 730.57,311.66 777.06,392.17 	"/>
</g>
<g>
	<polygon class="st0" points="593.71,232.02 500.75,232.02 454.26,151.51 500.75,71 593.71,71 640.2,151.51 	"/>
</g>
<g>
	<polygon class="st0" points="731.49,311.94 638.53,311.94 592.04,231.42 638.53,150.91 731.49,150.91 777.97,231.43 	"/>
</g>
<g>
	<polygon class="st0" points="868.35,232.02 775.38,232.02 728.9,151.51 775.39,71 868.35,71 914.83,151.51 	"/>
</g>
<g>
	<polygon class="st0" points="869.27,392.77 776.3,392.77 729.82,312.25 776.3,231.74 869.27,231.74 915.75,312.25 	"/>
</g>
<g>
	<polygon class="st0" points="1006.13,311.94 913.16,311.94 866.68,231.42 913.16,150.91 1006.13,150.91 1052.61,231.43 	"/>
</g>
<g>
	<polygon class="st0" points="1007.05,472.68 914.08,472.68 867.6,392.17 914.08,311.65 1007.05,311.66 1053.53,392.17 	"/>
</g>
<g>
	<polygon class="st0" points="1143.91,392.77 1050.94,392.77 1004.46,312.25 1050.94,231.74 1143.91,231.74 1190.39,312.25 	"/>
</g>
<g>
	<polygon class="st0" points="317.24,713.33 224.27,713.33 177.79,632.82 224.27,552.31 317.24,552.31 363.72,632.82 	"/>
</g>
<g>
	<polygon class="st0" points="454.1,632.5 361.13,632.5 314.65,551.99 361.13,471.48 454.1,471.48 500.58,551.99 	"/>
</g>
<g>
	<polygon class="st0" points="591.88,713.33 498.91,713.33 452.43,632.82 498.91,552.31 591.88,552.31 638.36,632.82 	"/>
</g>
<g>
	<polygon class="st0" points="178.54,471.76 85.58,471.76 39.09,391.25 85.58,310.74 178.54,310.74 225.03,391.25 	"/>
</g>
<g>
	<polygon class="st0" points="177.62,632.5 84.66,632.5 38.17,551.99 84.66,471.48 177.62,471.48 224.11,551.99 	"/>
</g>
<g>
	<polygon class="st0" points="730.57,633.42 637.61,633.42 591.12,552.91 637.61,472.4 730.57,472.4 777.06,552.91 	"/>
</g>
<g>
	<polygon class="st0" points="867.43,552.59 774.47,552.59 727.98,472.08 774.47,391.57 867.43,391.57 913.92,472.08 	"/>
</g>
<g>
	<polygon class="st0" points="867.35,713.33 774.38,713.33 727.9,632.82 774.39,552.31 867.35,552.31 913.83,632.82 	"/>
</g>
<g>
	<polygon class="st0" points="1005.21,633.42 912.24,633.42 865.76,552.91 912.24,472.4 1005.21,472.4 1051.69,552.91 	"/>
</g>
<g>
	<polygon class="st0" points="1144.83,232.02 1051.86,232.02 1005.38,151.51 1051.86,71 1144.83,71 1191.31,151.51 	"/>
</g>
<g>
	<polygon class="st0" points="1142.99,713.33 1050.02,713.33 1003.54,632.82 1050.02,552.31 1142.99,552.31 1189.47,632.82 	"/>
</g>
<g>
	<polygon class="st0" points="316.32,552.59 223.35,552.59 176.87,472.08 223.35,391.57 316.32,391.57 362.8,472.08 	"/>
</g>
<g>
	<polygon class="st0" points="1144.83,553.51 1051.86,553.51 1005.38,473 1051.86,392.48 1144.83,392.48 1191.31,473 	"/>
</g>
<g>
	<polygon class="st0" points="1282.6,312.85 1189.64,312.85 1143.15,232.34 1189.64,151.83 1282.6,151.83 1329.09,232.34 	"/>
</g>
<g>
	<polygon class="st0" points="1280.77,472.68 1187.8,472.68 1141.32,392.17 1187.8,311.65 1280.77,311.66 1327.25,392.17 	"/>
</g>
<g>
	<polygon class="st0" points="1281.85,633.42 1188.88,633.42 1142.4,552.91 1188.88,472.4 1281.85,472.4 1328.33,552.91 	"/>
</g>
</svg>
