<svg width="160" height="28" viewBox="0 0 160 28" xmlns="http://www.w3.org/2000/svg"><title>NEW LOGO</title><g fill="none" fill-rule="evenodd"><path d="M15.602 23.537V25.8c0 .542-.44.981-.982.981H.981A.982.982 0 0 1 0 25.8V1.954C0 1.412.44.972.98.972h13.43c.542 0 .982.44.982.982V4.13c0 .543-.44.982-.982.982H4.726v6.275h8.185c.47 0 .85.38.85.85v2.44c0 .47-.38.85-.85.85H4.726v7.028h9.894a.98.98 0 0 1 .982.981m4.852-3.95V7.999c0-4.475 3.43-7.445 8.115-7.445 2.431 0 4.774.564 6.702 2.543.159.163.544.64.885 1.072a.981.981 0 0 1-.182 1.393l-1.897 1.416a.98.98 0 0 1-1.342-.158c-.287-.347-.621-.728-.85-.922a4.795 4.795 0 0 0-3.15-1.161c-2.342 0-3.555 1.59-3.555 3.43v11.419c0 1.757 1.255 3.22 3.598 3.22 1.185 0 2.297-.515 3.166-1.245.102-.086.487-.486.823-.84a.981.981 0 0 1 1.224-.16l2.111 1.291a.982.982 0 0 1 .287 1.409c-.19.264-.374.515-.466.625-1.885 2.254-4.441 3.145-7.23 3.145-4.893 0-8.24-2.886-8.24-7.445m101.24 0V7.999c0-4.475 3.43-7.445 8.115-7.445 2.432 0 4.774.564 6.703 2.543.159.163.544.64.885 1.072a.981.981 0 0 1-.182 1.393l-1.897 1.416a.98.98 0 0 1-1.342-.158c-.287-.347-.622-.728-.85-.922a4.795 4.795 0 0 0-3.15-1.161c-2.342 0-3.555 1.59-3.555 3.43v11.419c0 1.757 1.255 3.22 3.597 3.22 1.186 0 2.298-.515 3.167-1.245.102-.086.487-.486.823-.84a.981.981 0 0 1 1.223-.16l2.112 1.291a.982.982 0 0 1 .286 1.409c-.19.264-.373.515-.465.625-1.885 2.254-4.442 3.145-7.23 3.145-4.893 0-8.24-2.886-8.24-7.445M55.483.972h2.764c.542 0 .981.44.981.982v23.845c0 .542-.44.981-.981.981h-2.764a.982.982 0 0 1-.981-.981V15.612h-8.24V25.8c0 .542-.44.981-.982.981h-2.805a.982.982 0 0 1-.982-.981V1.954c0-.542.44-.981.982-.982h2.805c.542 0 .982.44.982.982v9.517h8.24V1.954c0-.542.44-.982.981-.982M77.8 8.25c0-1.924-1.297-3.471-3.765-3.471-2.467 0-3.89 1.547-3.89 3.471v11.127c0 1.924 1.38 3.43 3.848 3.43 2.343 0 3.807-1.464 3.807-3.43V8.25zm-3.765 18.781c-4.852 0-8.616-2.802-8.616-7.612V8.209c0-4.727 3.68-7.655 8.574-7.655 4.769 0 8.575 2.844 8.575 7.654v11.21c0 4.727-3.639 7.613-8.533 7.613zM154.97 8.25c0-1.924-1.296-3.471-3.763-3.471-2.469 0-3.89 1.547-3.89 3.471v11.127c0 1.924 1.38 3.43 3.848 3.43 2.342 0 3.806-1.464 3.806-3.43V8.25zm-3.763 18.781c-4.853 0-8.617-2.802-8.617-7.612V8.209c0-4.727 3.68-7.655 8.575-7.655 4.768 0 8.575 2.844 8.575 7.654v11.21c0 4.727-3.64 7.613-8.533 7.613z" fill="#FFC100"/><path d="M87.243 17.76c0-4.47 2.906-7.003 4.396-7.673-.969-1.267-1.565-2.757-1.565-4.396 0-2.756 2.235-5.364 5.886-5.364 2.235 0 3.949 1.192 3.949 3.502 0 1.639-1.342 2.533-1.938 2.533-.149 0-.149-.298-.074-.671.223-1.415-.969-2.458-2.384-2.458-1.639 0-3.353 1.415-3.353 3.8 0 .819.298 1.862.82 2.681.496-.198 1.389-.661 2.854-.332.55.124.951.622.945 1.185-.01 1.026-.531 1.755-1.49 1.755-.745 0-1.936-.522-2.458-.894-.223-.373-.447-.447-.894-.15-1.118.82-2.012 2.757-2.012 4.843 0 4.545 3.874 7.674 10.654 7.674 6.78 0 10.356-3.8 10.356-7.376 0-2.533-1.937-5.14-5.29-5.14-3.129 0-3.725 2.458-3.725 3.352 0 1.267.894 2.235 1.192 2.235a.406.406 0 0 0 .373-.521c-.075-.596.447-1.788 1.564-1.788 1.415 0 2.086.745 2.086 1.862 0 .969-.596 2.161-2.608 2.161-1.788 0-4.172-1.49-4.172-4.619 0-2.757 2.31-5.439 6.259-5.439 1.564 0 2.98.298 4.618.298 3.055 0 4.992-1.192 4.992-3.278 0-1.192-1.117-2.458-2.086-2.458-.521 0-.521.447-.447.82.224.595-.298 1.862-1.64 1.862-1.191 0-1.787-.82-1.787-1.64 0-1.49 1.49-2.383 2.905-2.383 2.98 0 4.62 1.937 4.62 3.948 0 3.725-2.31 5.662-5.811 6.184-.895.074-.895.447-.522.894.447.745 1.117 2.16 1.117 4.47 0 6.332-5.587 10.132-12.367 10.132-10.355 0-12.963-5.811-12.963-9.61" fill="#F15B41"/></g></svg>