<svg xmlns="http://www.w3.org/2000/svg" width="476" height="512" fill="none" viewBox="0 0 476 512"><path fill="#FFE600" d="M247.027 355.126L247.027 156.884L199.933 156.884L199.933 355.126L247.027 355.126Z"/><path fill="#000" d="M178.139 355.126L178.139 156.884L131.045 156.884L131.045 355.126L178.139 355.126Z"/><path fill="#FFE600" d="M106.755 161.443C69.9798 173.01 42.5158 205.442 38.0928 244.859L11.3658 244.859C5.20781 244.859 0.2178 249.848 0.2178 256.006C0.2178 262.164 5.20781 267.152 11.3658 267.152L38.0928 267.152C42.5158 306.57 69.9798 339 106.755 350.567L106.755 161.443Z"/><path fill="#000" d="M431.4 152.144C429.574 158.098 430.334 164.233 433.032 169.347C420.877 183.646 408.868 192.945 398.481 199.079C380.541 173.588 350.956 156.884 317.413 156.884L270.319 156.884L270.319 355.126L317.413 355.126C350.956 355.126 380.541 338.422 398.481 312.931C408.868 319.065 420.877 328.353 433.032 342.653C430.334 347.767 429.574 353.901 431.4 359.867C435.062 371.853 447.752 378.589 459.727 374.938C471.701 371.274 478.449 358.586 474.785 346.599C471.123 334.625 458.445 327.889 446.459 331.541C445.586 331.813 444.803 332.221 443.987 332.584C430.89 317.286 417.713 307.013 406.067 300.142C412.701 286.84 416.533 271.883 416.533 256.008C416.533 240.132 412.701 225.175 406.067 211.862C417.713 204.99 430.878 194.717 443.987 179.431C444.803 179.793 445.586 180.202 446.459 180.462C458.445 184.124 471.123 177.378 474.785 165.403C478.449 153.417 471.701 140.739 459.727 137.077C447.751 133.412 435.062 140.159 431.4 152.144Z"/><path fill="#000" d="M60.5338 108.192C60.5338 86.4869 69.2548 66.9609 83.4738 52.6839C97.7508 38.4519 117.279 29.7319 138.994 29.7319C146.126 29.7319 153.066 30.6849 159.61 32.5099C142.214 50.9939 131.555 75.8279 131.555 103.236C131.555 117.286 134.391 130.679 139.471 142.88L167.173 142.88C160.325 131.234 156.332 117.75 156.332 103.236C156.332 81.5319 165.11 61.9939 179.33 47.7289C180.724 46.3329 182.154 45.0069 183.696 43.7149C190.387 37.9189 198.063 33.3049 206.444 30.0839C215.22 26.6599 224.78 24.7779 234.793 24.7779C256.497 24.7779 276.08 33.4979 290.3 47.7299C304.531 61.9949 313.297 81.5329 313.297 103.237C313.297 117.752 309.306 131.236 302.456 142.881L330.136 142.881C335.228 130.679 338.074 117.287 338.074 103.237C338.028 46.1979 291.831 -0.000124092 234.792 -0.000126585C215.559 -0.000127426 197.575 5.26087 182.153 14.4239C169.021 8.32287 154.404 4.95587 138.994 4.95587C81.9438 4.95587 35.7559 51.1539 35.7559 108.192C35.7559 132.912 44.4538 155.57 58.9118 173.338C64.9438 167.748 71.5898 162.782 78.8238 158.563C67.3838 144.899 60.5338 127.402 60.5338 108.192Z"/><path fill="#000" d="M234.792 512C291.831 512 338.028 465.813 338.074 408.774C338.074 394.713 335.228 381.332 330.136 369.119L302.456 369.119C309.306 380.765 313.297 394.259 313.297 408.774C313.297 430.479 304.531 450.006 290.3 464.282C276.08 478.502 256.496 487.222 234.793 487.222C224.78 487.222 215.22 485.34 206.444 481.916C198.064 478.706 190.387 474.091 183.696 468.296C182.154 467.004 180.724 465.665 179.33 464.282C165.11 450.006 156.332 430.479 156.332 408.774C156.332 394.259 160.324 380.765 167.173 369.119L139.471 369.119C134.391 381.331 131.555 394.725 131.555 408.774C131.555 436.183 142.215 461.005 159.61 479.489C153.067 481.326 146.126 482.267 138.994 482.267C117.279 482.267 97.7508 473.547 83.4738 459.327C69.2538 445.051 60.5338 425.523 60.5338 403.82C60.5338 384.599 67.3839 367.112 78.8249 353.449C71.5909 349.231 64.9448 344.253 58.9128 338.673C44.4548 356.431 35.7568 379.1 35.7568 403.82C35.7568 460.859 81.9438 507.045 138.995 507.045C154.405 507.045 169.022 503.678 182.154 497.588C197.575 506.749 215.559 512 234.792 512Z"/></svg>