<svg id="Layer_1" data-name="Layer 1" xmlns="http://www.w3.org/2000/svg" viewBox="0 0 536.91 331.51"><defs><style>.cls-1{font-size:150.69px;font-family:DINCondensed-Bold, DIN Condensed;font-weight:700;}.cls-1,.cls-5{fill:#231f20;}.cls-2{letter-spacing:0.14em;}.cls-3{letter-spacing:0.3em;}.cls-4{letter-spacing:0em;}.cls-6{fill:#e5f4f0;}.cls-7{fill:#c7e3f0;}.cls-8{fill:#ecf6f2;}.cls-9{fill:#87cbcb;}</style></defs><title>2020hackher_logo</title><text class="cls-1" transform="translate(17.41 118.67) scale(1 0.92)">HACK<tspan x="251.04" y="0">(H)ER</tspan><tspan class="cls-2"><tspan x="-17.41" y="163.79" xml:space="preserve">					</tspan><tspan class="cls-3" x="226.94" y="163.79">	</tspan><tspan class="cls-4" x="299.56" y="163.79" xml:space="preserve"> 413</tspan></tspan></text><rect class="cls-5" x="146.27" y="209.33" width="12.22" height="24.44"/><rect class="cls-5" x="158.49" y="197.11" width="12.22" height="12.22"/><rect class="cls-5" x="182.93" y="184.89" width="12.22" height="12.22"/><rect class="cls-5" x="195.15" y="184.89" width="24.44" height="12.22"/><rect class="cls-5" x="215.51" y="184.89" width="12.22" height="12.22"/><rect class="cls-5" x="146.27" y="245.98" width="12.22" height="24.44"/><rect class="cls-5" x="158.49" y="270.42" width="12.22" height="12.22"/><rect class="cls-5" x="182.93" y="282.63" width="12.22" height="12.22"/><rect class="cls-5" x="195.15" y="282.63" width="48.87" height="12.22"/><rect class="cls-5" x="244.02" y="282.63" width="12.22" height="12.22"/><rect class="cls-5" x="256.24" y="270.42" width="12.22" height="12.22"/><rect class="cls-5" x="158.49" y="209.33" width="12.22" height="12.22"/><rect class="cls-5" x="158.49" y="221.55" width="12.22" height="48.87"/><rect class="cls-5" x="207.36" y="197.11" width="24.44" height="97.74"/><rect class="cls-5" x="256.24" y="209.33" width="12.22" height="61.09"/><rect class="cls-5" x="178.86" y="172.67" width="12.22" height="12.22"/><rect class="cls-5" x="191.07" y="160.46" width="12.22" height="12.22"/><rect class="cls-5" x="203.29" y="148.24" width="12.22" height="12.22"/><rect class="cls-5" x="215.51" y="136.02" width="12.22" height="12.22"/><rect class="cls-5" x="227.73" y="136.02" width="12.22" height="12.22"/><rect class="cls-5" x="239.94" y="148.24" width="12.22" height="12.22"/><rect class="cls-5" x="239.94" y="160.46" width="12.22" height="12.22"/><rect class="cls-5" x="231.8" y="197.11" width="12.22" height="12.22"/><rect class="cls-5" x="252.16" y="160.46" width="12.22" height="12.22"/><rect class="cls-5" x="264.38" y="172.67" width="12.22" height="12.22"/><rect class="cls-5" x="252.16" y="184.89" width="12.22" height="12.22"/><rect class="cls-5" x="244.02" y="197.11" width="12.22" height="12.22"/><rect class="cls-5" x="227.73" y="172.67" width="12.22" height="12.22"/><rect class="cls-5" x="134.06" y="209.33" width="12.22" height="61.09"/><rect class="cls-5" x="121.84" y="221.55" width="12.22" height="36.65"/><rect class="cls-5" x="170.71" y="184.89" width="12.22" height="109.96"/><rect class="cls-5" x="268.45" y="221.55" width="12.22" height="48.87"/><rect class="cls-5" x="280.67" y="233.76" width="12.22" height="24.44"/><rect class="cls-5" x="292.89" y="245.98" width="22.48" height="12.22"/><rect class="cls-6" x="305.11" y="209.33" width="12.22" height="12.22"/><rect class="cls-6" x="305.11" y="148.24" width="12.22" height="12.22"/><rect class="cls-6" x="329.54" y="137.38" width="12.22" height="12.22"/><rect class="cls-6" x="345.83" y="172.67" width="12.22" height="12.22"/><rect class="cls-7" x="146.27" y="172.67" width="12.22" height="12.22"/><rect class="cls-6" x="134.06" y="136.02" width="12.22" height="12.22"/><rect class="cls-6" x="280.67" y="282.63" width="12.22" height="12.22"/><rect class="cls-6" x="244.02" y="307.07" width="12.22" height="12.22"/><rect class="cls-6" x="305.11" y="319.29" width="12.22" height="12.22"/><rect x="121.84" y="197.11" width="12.22" height="12.22"/><rect x="109.62" y="184.89" width="12.22" height="12.22"/><rect x="97.4" y="172.67" width="12.22" height="12.22"/><rect x="134.06" y="184.89" width="12.22" height="12.22"/><rect x="146.27" y="172.67" width="12.22" height="12.22"/><rect class="cls-8" x="146.27" y="233.76" width="12.22" height="12.22"/><rect class="cls-9" x="182.93" y="197.11" width="24.44" height="85.52"/><rect class="cls-9" x="231.8" y="209.33" width="24.44" height="73.31"/><rect class="cls-6" x="191.07" y="172.67" width="36.65" height="12.22"/><rect class="cls-6" x="203.29" y="160.46" width="36.65" height="12.22"/><rect class="cls-6" x="215.51" y="148.24" width="24.44" height="12.22"/><rect class="cls-6" x="239.94" y="172.67" width="24.44" height="12.22"/><rect class="cls-6" x="227.73" y="184.89" width="24.44" height="12.22"/></svg>