<?xml version="1.0" encoding="utf-8"?>
<!-- Generator: Adobe Illustrator 23.0.3, SVG Export Plug-In . SVG Version: 6.00 Build 0)  -->
<svg version="1.1" id="Layer_1" xmlns="http://www.w3.org/2000/svg" xmlns:xlink="http://www.w3.org/1999/xlink" x="0px" y="0px"
	 viewBox="0 0 454.67 341" style="enable-background:new 0 0 454.67 341;" xml:space="preserve">
<style type="text/css">
	.st0{fill:#231F20;}
	.st1{fill:#E6F4F0;}
	.st2{fill:#C7E3F0;}
	.st3{fill:#ECF6F2;}
	.st4{fill:#87CBCB;}
</style>
<title>2020bee_color</title>
<rect x="85.25" y="127.88" class="st0" width="21.31" height="42.63"/>
<rect x="106.56" y="106.56" class="st0" width="21.31" height="21.31"/>
<rect x="149.19" y="85.25" class="st0" width="21.31" height="21.31"/>
<rect x="170.5" y="85.25" class="st0" width="42.63" height="21.31"/>
<rect x="206.02" y="85.25" class="st0" width="21.31" height="21.31"/>
<rect x="85.25" y="191.82" class="st0" width="21.31" height="42.63"/>
<rect x="106.56" y="234.44" class="st0" width="21.31" height="21.31"/>
<rect x="149.19" y="255.75" class="st0" width="21.31" height="21.31"/>
<rect x="170.5" y="255.75" class="st0" width="85.25" height="21.31"/>
<rect x="255.75" y="255.75" class="st0" width="21.31" height="21.31"/>
<rect x="277.07" y="234.44" class="st0" width="21.31" height="21.31"/>
<rect x="106.56" y="127.88" class="st0" width="21.31" height="21.31"/>
<rect x="106.56" y="149.19" class="st0" width="21.31" height="85.25"/>
<rect x="191.82" y="106.56" class="st0" width="42.63" height="170.5"/>
<rect x="277.07" y="127.88" class="st0" width="21.31" height="106.56"/>
<rect x="142.09" y="63.94" class="st0" width="21.31" height="21.31"/>
<rect x="163.4" y="42.63" class="st0" width="21.31" height="21.31"/>
<rect x="184.71" y="21.31" class="st0" width="21.31" height="21.31"/>
<rect x="206.02" class="st0" width="21.31" height="21.31"/>
<rect x="227.34" class="st0" width="21.31" height="21.31"/>
<rect x="248.65" y="21.31" class="st0" width="21.31" height="21.31"/>
<rect x="248.65" y="42.63" class="st0" width="21.31" height="21.31"/>
<rect x="234.44" y="106.56" class="st0" width="21.31" height="21.31"/>
<rect x="269.96" y="42.63" class="st0" width="21.31" height="21.31"/>
<rect x="291.27" y="63.94" class="st0" width="21.31" height="21.31"/>
<rect x="269.96" y="85.25" class="st0" width="21.31" height="21.31"/>
<rect x="255.75" y="106.56" class="st0" width="21.31" height="21.31"/>
<rect x="227.34" y="63.94" class="st0" width="21.31" height="21.31"/>
<rect x="63.94" y="127.88" class="st0" width="21.31" height="106.56"/>
<rect x="42.63" y="149.19" class="st0" width="21.31" height="63.94"/>
<rect x="127.88" y="85.25" class="st0" width="21.31" height="191.82"/>
<rect x="298.38" y="149.19" class="st0" width="21.31" height="85.25"/>
<rect x="319.69" y="170.5" class="st0" width="21.31" height="42.63"/>
<rect x="341" y="191.82" class="st0" width="39.22" height="21.31"/>
<rect x="362.32" y="127.88" class="st1" width="21.31" height="21.31"/>
<rect x="362.32" y="21.31" class="st1" width="21.31" height="21.31"/>
<rect x="404.94" y="2.37" class="st1" width="21.31" height="21.31"/>
<rect x="433.36" y="63.94" class="st1" width="21.31" height="21.31"/>
<rect x="85.25" y="63.94" class="st2" width="21.31" height="21.31"/>
<rect x="63.94" class="st1" width="21.31" height="21.31"/>
<rect x="319.69" y="255.75" class="st1" width="21.31" height="21.31"/>
<rect x="255.75" y="298.38" class="st1" width="21.31" height="21.31"/>
<rect x="362.32" y="319.69" class="st1" width="21.31" height="21.31"/>
<rect x="42.63" y="106.56" width="21.31" height="21.31"/>
<rect x="21.31" y="85.25" width="21.31" height="21.31"/>
<rect y="63.94" width="21.31" height="21.31"/>
<rect x="63.94" y="85.25" width="21.31" height="21.31"/>
<rect x="85.25" y="63.94" width="21.31" height="21.31"/>
<rect x="85.25" y="170.5" class="st3" width="21.31" height="21.31"/>
<rect x="149.19" y="106.56" class="st4" width="42.63" height="149.19"/>
<rect x="234.44" y="127.88" class="st4" width="42.63" height="127.88"/>
<rect x="163.4" y="63.94" class="st1" width="63.94" height="21.31"/>
<rect x="184.71" y="42.63" class="st1" width="63.94" height="21.31"/>
<rect x="206.02" y="21.31" class="st1" width="42.63" height="21.31"/>
<rect x="248.65" y="63.94" class="st1" width="42.63" height="21.31"/>
<rect x="227.34" y="85.25" class="st1" width="42.63" height="21.31"/>
</svg>
