<svg xmlns="http://www.w3.org/2000/svg" xmlns:xlink="http://www.w3.org/1999/xlink" id="Layer_1" x="0" y="0" version="1.1" viewBox="0 0 454.67 341" xml:space="preserve" style="enable-background:new 0 0 454.67 341"><style type="text/css">.st0{fill:#231f20}.st1{fill:#e6f4f0}.st2{fill:#c7e3f0}.st3{fill:#ecf6f2}.st4{fill:#87cbcb}</style><title>2020bee_color</title><rect width="21.31" height="42.63" x="85.25" y="127.88" class="st0"/><rect width="21.31" height="21.31" x="106.56" y="106.56" class="st0"/><rect width="21.31" height="21.31" x="149.19" y="85.25" class="st0"/><rect width="42.63" height="21.31" x="170.5" y="85.25" class="st0"/><rect width="21.31" height="21.31" x="206.02" y="85.25" class="st0"/><rect width="21.31" height="42.63" x="85.25" y="191.82" class="st0"/><rect width="21.31" height="21.31" x="106.56" y="234.44" class="st0"/><rect width="21.31" height="21.31" x="149.19" y="255.75" class="st0"/><rect width="85.25" height="21.31" x="170.5" y="255.75" class="st0"/><rect width="21.31" height="21.31" x="255.75" y="255.75" class="st0"/><rect width="21.31" height="21.31" x="277.07" y="234.44" class="st0"/><rect width="21.31" height="21.31" x="106.56" y="127.88" class="st0"/><rect width="21.31" height="85.25" x="106.56" y="149.19" class="st0"/><rect width="42.63" height="170.5" x="191.82" y="106.56" class="st0"/><rect width="21.31" height="106.56" x="277.07" y="127.88" class="st0"/><rect width="21.31" height="21.31" x="142.09" y="63.94" class="st0"/><rect width="21.31" height="21.31" x="163.4" y="42.63" class="st0"/><rect width="21.31" height="21.31" x="184.71" y="21.31" class="st0"/><rect width="21.31" height="21.31" x="206.02" class="st0"/><rect width="21.31" height="21.31" x="227.34" class="st0"/><rect width="21.31" height="21.31" x="248.65" y="21.31" class="st0"/><rect width="21.31" height="21.31" x="248.65" y="42.63" class="st0"/><rect width="21.31" height="21.31" x="234.44" y="106.56" class="st0"/><rect width="21.31" height="21.31" x="269.96" y="42.63" class="st0"/><rect width="21.31" height="21.31" x="291.27" y="63.94" class="st0"/><rect width="21.31" height="21.31" x="269.96" y="85.25" class="st0"/><rect width="21.31" height="21.31" x="255.75" y="106.56" class="st0"/><rect width="21.31" height="21.31" x="227.34" y="63.94" class="st0"/><rect width="21.31" height="106.56" x="63.94" y="127.88" class="st0"/><rect width="21.31" height="63.94" x="42.63" y="149.19" class="st0"/><rect width="21.31" height="191.82" x="127.88" y="85.25" class="st0"/><rect width="21.31" height="85.25" x="298.38" y="149.19" class="st0"/><rect width="21.31" height="42.63" x="319.69" y="170.5" class="st0"/><rect width="39.22" height="21.31" x="341" y="191.82" class="st0"/><rect width="21.31" height="21.31" x="362.32" y="127.88" class="st1"/><rect width="21.31" height="21.31" x="362.32" y="21.31" class="st1"/><rect width="21.31" height="21.31" x="404.94" y="2.37" class="st1"/><rect width="21.31" height="21.31" x="433.36" y="63.94" class="st1"/><rect width="21.31" height="21.31" x="85.25" y="63.94" class="st2"/><rect width="21.31" height="21.31" x="63.94" class="st1"/><rect width="21.31" height="21.31" x="319.69" y="255.75" class="st1"/><rect width="21.31" height="21.31" x="255.75" y="298.38" class="st1"/><rect width="21.31" height="21.31" x="362.32" y="319.69" class="st1"/><rect width="21.31" height="21.31" x="42.63" y="106.56"/><rect width="21.31" height="21.31" x="21.31" y="85.25"/><rect width="21.31" height="21.31" y="63.94"/><rect width="21.31" height="21.31" x="63.94" y="85.25"/><rect width="21.31" height="21.31" x="85.25" y="63.94"/><rect width="21.31" height="21.31" x="85.25" y="170.5" class="st3"/><rect width="42.63" height="149.19" x="149.19" y="106.56" class="st4"/><rect width="42.63" height="127.88" x="234.44" y="127.88" class="st4"/><rect width="63.94" height="21.31" x="163.4" y="63.94" class="st1"/><rect width="63.94" height="21.31" x="184.71" y="42.63" class="st1"/><rect width="42.63" height="21.31" x="206.02" y="21.31" class="st1"/><rect width="42.63" height="21.31" x="248.65" y="63.94" class="st1"/><rect width="42.63" height="21.31" x="227.34" y="85.25" class="st1"/></svg>